<svg id="Capa_1" data-name="Capa 1" xmlns="http://www.w3.org/2000/svg" viewBox="0 0 99.78 99.78"><defs><style>.cls-1{fill:#e2d829;}</style></defs><path class="cls-1" d="M79.21.18H21A20.79,20.79,0,0,0,.22,21v58.2A20.79,20.79,0,0,0,21,100h58.2A20.79,20.79,0,0,0,100,79.17V21A20.79,20.79,0,0,0,79.21.18ZM50,88A38,38,0,1,1,88,50,38,38,0,0,1,50,88Z" transform="translate(-0.22 -0.18)"/><path class="cls-1" d="M83.26,49.82A33.27,33.27,0,0,1,60.53,81.38c-1.68.32-2.22-.71-2.22-1.6V70.66c0-3.11-1.08-5.13-2.28-6.16,7.41-.82,15.19-3.64,15.19-16.41a12.91,12.91,0,0,0-3.42-8.93,12,12,0,0,0-.33-8.8s-2.79-.89-9.14,3.41A31.29,31.29,0,0,0,50,32.65a31.69,31.69,0,0,0-8.33,1.11c-6.35-4.3-9.14-3.4-9.14-3.4a11.89,11.89,0,0,0-.32,8.8,12.86,12.86,0,0,0-3.43,8.93c0,12.74,7.76,15.59,15.15,16.44A7.07,7.07,0,0,0,41.82,69c-1.9.85-6.71,2.32-9.68-2.76,0,0-1.76-3.2-5.1-3.43,0,0-3.24-.05-.23,2,0,0,2.19,1,3.7,4.86,0,0,1.92,5.94,11.17,3.93v6.19c0,.88-.53,1.91-2.19,1.6A33.26,33.26,0,1,1,83.26,49.82Z" transform="translate(-0.22 -0.18)"/></svg>