<svg id="Capa_1" data-name="Capa 1" xmlns="http://www.w3.org/2000/svg" viewBox="0 0 100 100"><defs><style>.cls-1{fill:#e2d829;}</style></defs><path class="cls-1" d="M64,22c-3.51-.16-4.57-.19-13.47-.19s-10,0-13.47.19c-9,.41-13.25,4.7-13.66,13.66-.16,3.52-.2,4.57-.2,13.47s0,10,.19,13.47c.42,9,4.61,13.25,13.67,13.67,3.51.15,4.57.19,13.47.19s10,0,13.47-.19c9-.41,13.25-4.7,13.66-13.66.16-3.52.19-4.57.19-13.47s0-10-.19-13.47C77.25,26.71,73,22.42,64,22ZM50.53,66.26A17.12,17.12,0,1,1,67.64,49.14,17.11,17.11,0,0,1,50.53,66.26ZM68.32,35.35a4,4,0,1,1,4-4A4,4,0,0,1,68.32,35.35ZM61.64,49.14A11.11,11.11,0,1,1,50.53,38,11.11,11.11,0,0,1,61.64,49.14ZM79.17,0H20.83A20.84,20.84,0,0,0,0,20.83V79.17A20.84,20.84,0,0,0,20.83,100H79.17A20.84,20.84,0,0,0,100,79.17V20.83A20.84,20.84,0,0,0,79.17,0Zm4.49,62.88C83.11,75,76.37,81.72,64.27,82.28c-3.55.16-4.69.2-13.74.2s-10.19,0-13.74-.2C24.67,81.72,18,75,17.39,62.88c-.16-3.55-.2-4.68-.2-13.74s0-10.18.2-13.74C18,23.28,24.68,16.56,36.79,16c3.55-.16,4.68-.2,13.74-.2s10.19,0,13.74.2c12.12.55,18.85,7.3,19.39,19.39.16,3.56.2,4.69.2,13.74S83.82,59.33,83.66,62.88Z" transform="translate(0 0)"/></svg>