<svg id="Capa_1" data-name="Capa 1" xmlns="http://www.w3.org/2000/svg" viewBox="0 0 100.45 100.45"><defs><style>.cls-1{fill:#e2d829;}</style></defs><path class="cls-1" d="M79.07-.39H20.48A20.93,20.93,0,0,0-.45,20.54V79.13a20.93,20.93,0,0,0,20.93,20.93H79.07A20.93,20.93,0,0,0,100,79.13V20.54A20.93,20.93,0,0,0,79.07-.39ZM33,79.13H20.48v-46H33ZM28.68,26.18A7.39,7.39,0,1,1,36,18.8,7.36,7.36,0,0,1,28.68,26.18Zm54.58,53H70.7V55.68c0-14.1-16.74-13-16.74,0V79.13H41.4v-46H54v7.39c5.84-10.82,29.3-11.62,29.3,10.37Z" transform="translate(0.45 0.39)"/></svg>